<svg xmlns="http://www.w3.org/2000/svg" viewBox="0 0 1200 800" fill="none" aria-hidden="true">
  <g opacity="0.55" stroke="currentColor" stroke-width="1.1">
    <path d="M-70 100 C110 10 250 60 340 180 C430 300 560 250 670 140 C790 20 980 40 1260 120"/>
    <path d="M-90 170 C100 75 265 120 365 245 C462 366 590 330 705 205 C820 80 1000 95 1260 175"/>
    <path d="M-110 240 C86 145 280 180 395 310 C512 440 625 420 748 280 C880 135 1035 150 1270 235"/>
    <path d="M-130 315 C70 220 285 235 420 375 C552 512 665 505 790 360 C930 195 1065 210 1280 300"/>
    <path d="M-150 395 C60 300 310 300 460 445 C605 585 700 590 840 438 C975 290 1100 285 1290 370"/>
    <path d="M-170 480 C45 390 345 360 505 515 C655 660 745 675 895 520 C1010 400 1130 370 1300 450"/>
    <path d="M-190 570 C30 485 365 440 555 600 C710 730 790 755 950 610 C1065 505 1165 470 1310 540"/>
  </g>
</svg>